<svg width="148" height="47" viewBox="0 0 148 47" fill="none" xmlns="http://www.w3.org/2000/svg">
<path d="M0.5 45L6.05 8.25H12.65L18.2 45H12.95L11.95 37.5H6.75L5.75 45H0.5ZM9.65 20.2L9.5 19.25H9.2L9.05 20.2L7.5 31.8H11.2L9.65 20.2ZM35.0512 8.25V37.45C35.0012 38.95 34.7012 40.3 34.1512 41.45C33.7012 42.45 33.0012 43.4 32.0012 44.15C31.0012 44.95 29.6512 45.4 27.8512 45.4C26.0512 45.4 24.6512 44.95 23.6512 44.15C22.6512 43.4 22.0012 42.45 21.5512 41.45C21.0012 40.3 20.7012 38.95 20.6512 37.45V8.25H26.0512V37.45C26.0512 38.5 26.3012 39.2 26.8012 39.75C27.0512 40 27.4012 40.15 27.8512 40.15C28.8012 40.15 29.2512 39.55 29.4512 38.8C29.6012 38.45 29.6512 38 29.6512 37.45V8.25H35.0512ZM37.1117 13.8V8.25H52.7117V13.8H47.6117V45H42.2117V13.8H37.1117ZM68.882 37.45C68.832 38.95 68.532 40.3 67.982 41.45C67.532 42.45 66.832 43.4 65.832 44.15C64.832 44.95 63.482 45.4 61.682 45.4C59.882 45.4 58.482 44.95 57.482 44.15C56.482 43.4 55.832 42.45 55.382 41.45C54.832 40.3 54.532 38.95 54.482 37.45V15.8C54.532 14.35 54.832 13 55.382 11.85C55.832 10.85 56.482 9.85 57.482 9.1C58.482 8.35 59.882 7.85 61.682 7.85C63.482 7.85 64.832 8.35 65.832 9.1C66.832 9.85 67.532 10.85 67.982 11.85C68.532 13 68.832 14.35 68.882 15.8V37.45ZM63.482 15.8C63.482 14.8 63.282 14.1 62.782 13.5C62.532 13.25 62.132 13.1 61.682 13.1C60.732 13.1 60.282 13.8 60.082 14.45C59.932 14.85 59.882 15.3 59.882 15.8V37.45C59.882 38.5 60.132 39.2 60.632 39.75C60.882 40 61.232 40.15 61.682 40.15C62.632 40.15 63.082 39.55 63.282 38.8C63.432 38.45 63.482 38 63.482 37.45V15.8ZM72.5078 8.25H77.9078C80.2578 8.25 82.6078 8.85 84.4078 10.55C86.2078 12.25 87.4078 15.05 87.4078 19.25C87.4078 23.45 86.2078 26.2 84.4078 27.9C82.6078 29.6 80.2578 30.3 77.9078 30.3V45H72.5078V8.25ZM77.9078 24.8C79.5578 24.8 80.6078 24.5 81.2078 23.65C81.8078 22.85 81.9578 21.5 81.9578 19.45C81.9578 17.4 81.8078 15.95 81.2078 15.05C80.6078 14.15 79.5578 13.75 77.9078 13.75V24.8ZM104.136 37.45C104.086 38.95 103.786 40.3 103.236 41.45C102.786 42.45 102.086 43.4 101.086 44.15C100.086 44.95 98.7359 45.4 96.9359 45.4C95.1359 45.4 93.7359 44.95 92.7359 44.15C91.7359 43.4 91.0859 42.45 90.6359 41.45C90.0859 40.3 89.7859 38.95 89.7359 37.45V15.8C89.7859 14.35 90.0859 13 90.6359 11.85C91.0859 10.85 91.7359 9.85 92.7359 9.1C93.7359 8.35 95.1359 7.85 96.9359 7.85C98.7359 7.85 100.086 8.35 101.086 9.1C102.086 9.85 102.786 10.85 103.236 11.85C103.786 13 104.086 14.35 104.136 15.8V37.45ZM98.7359 15.8C98.7359 14.8 98.5359 14.1 98.0359 13.5C97.7859 13.25 97.3859 13.1 96.9359 13.1C95.9859 13.1 95.5359 13.8 95.3359 14.45C95.1859 14.85 95.1359 15.3 95.1359 15.8V37.45C95.1359 38.5 95.3859 39.2 95.8859 39.75C96.1359 40 96.4859 40.15 96.9359 40.15C97.8859 40.15 98.3359 39.55 98.5359 38.8C98.6859 38.45 98.7359 38 98.7359 37.45V15.8ZM122.112 8.25V37.45C122.062 38.95 121.762 40.3 121.212 41.45C120.762 42.45 120.062 43.4 119.062 44.15C118.062 44.95 116.712 45.4 114.912 45.4C113.112 45.4 111.712 44.95 110.712 44.15C109.712 43.4 109.062 42.45 108.612 41.45C108.062 40.3 107.762 38.95 107.712 37.45V8.25H113.112V37.45C113.112 38.5 113.362 39.2 113.862 39.75C114.112 40 114.462 40.15 114.912 40.15C115.862 40.15 116.312 39.55 116.512 38.8C116.662 38.45 116.712 38 116.712 37.45V8.25H122.112ZM126.072 8.25H131.472V40H138.622V45H126.072V8.25Z" fill="black"/>
<path d="M144.985 13.1991C144.825 13.9291 144.49 14.5041 143.98 14.9241C143.48 15.3441 142.885 15.5541 142.195 15.5541C141.685 15.5541 141.225 15.4691 140.815 15.2991C140.405 15.1191 140.055 14.8791 139.765 14.5791C139.475 14.2691 139.25 13.9041 139.09 13.4841C138.94 13.0641 138.865 12.6091 138.865 12.1191C138.865 11.6191 138.94 11.1591 139.09 10.7391C139.24 10.3191 139.455 9.95912 139.735 9.65912C140.015 9.35912 140.36 9.12412 140.77 8.95412C141.18 8.78412 141.64 8.69912 142.15 8.69912C142.87 8.69912 143.49 8.89412 144.01 9.28412C144.53 9.66412 144.85 10.2291 144.97 10.9791H144.025C143.945 10.5591 143.74 10.2141 143.41 9.94412C143.09 9.66412 142.675 9.52412 142.165 9.52412C141.795 9.52412 141.465 9.58912 141.175 9.71912C140.895 9.84912 140.66 10.0341 140.47 10.2741C140.28 10.5041 140.135 10.7741 140.035 11.0841C139.935 11.3941 139.885 11.7291 139.885 12.0891C139.885 12.4391 139.935 12.7741 140.035 13.0941C140.145 13.4141 140.3 13.6941 140.5 13.9341C140.7 14.1741 140.94 14.3691 141.22 14.5191C141.51 14.6591 141.835 14.7291 142.195 14.7291C142.705 14.7291 143.12 14.5891 143.44 14.3091C143.76 14.0191 143.955 13.6491 144.025 13.1991H144.985ZM137.38 12.0891C137.38 12.7791 137.495 13.4191 137.725 14.0091C137.965 14.5891 138.29 15.0941 138.7 15.5241C139.12 15.9541 139.61 16.2941 140.17 16.5441C140.74 16.7841 141.355 16.9041 142.015 16.9041C142.665 16.9041 143.27 16.7841 143.83 16.5441C144.39 16.2941 144.875 15.9541 145.285 15.5241C145.705 15.0941 146.03 14.5891 146.26 14.0091C146.5 13.4191 146.62 12.7791 146.62 12.0891C146.62 11.4191 146.5 10.7941 146.26 10.2141C146.03 9.63412 145.705 9.13412 145.285 8.71412C144.875 8.28412 144.39 7.94912 143.83 7.70912C143.27 7.45912 142.665 7.33412 142.015 7.33412C141.355 7.33412 140.74 7.45912 140.17 7.70912C139.61 7.94912 139.12 8.28412 138.7 8.71412C138.29 9.13412 137.965 9.63412 137.725 10.2141C137.495 10.7941 137.38 11.4191 137.38 12.0891ZM136.36 12.0891C136.36 11.2991 136.51 10.5641 136.81 9.88412C137.11 9.20412 137.515 8.61412 138.025 8.11412C138.545 7.61412 139.145 7.22412 139.825 6.94412C140.515 6.65412 141.245 6.50912 142.015 6.50912C142.785 6.50912 143.51 6.65412 144.19 6.94412C144.87 7.22412 145.465 7.61412 145.975 8.11412C146.485 8.61412 146.89 9.20412 147.19 9.88412C147.49 10.5641 147.64 11.2991 147.64 12.0891C147.64 12.8991 147.49 13.6491 147.19 14.3391C146.89 15.0191 146.485 15.6141 145.975 16.1241C145.465 16.6241 144.87 17.0141 144.19 17.2941C143.51 17.5741 142.785 17.7141 142.015 17.7141C141.245 17.7141 140.515 17.5741 139.825 17.2941C139.145 17.0141 138.545 16.6241 138.025 16.1241C137.515 15.6141 137.11 15.0191 136.81 14.3391C136.51 13.6491 136.36 12.8991 136.36 12.0891Z" fill="black"/>
</svg>
